<svg width="35" height="39" viewBox="0 0 35 39" fill="none" xmlns="http://www.w3.org/2000/svg">
<g clip-path="url(#clip0_313_162)">
<path d="M18.41 -2.76272e-05C18.28 -0.0200276 18.16 0.0499724 18.11 0.169972C18.06 0.289972 18.1 0.429972 18.2 0.509972C18.94 1.06997 19.63 1.68997 20.27 2.34997C27.05 9.38997 26.83 20.62 19.8 27.39C14.61 32.39 6.98999 33.75 0.38999 30.85C0.26999 30.8 0.13999 30.84 0.0499902 30.94C-0.0300098 31.04 -0.0300098 31.19 0.0499902 31.29C0.44999 31.79 0.83999 32.24 1.24999 32.66C8.67999 40.38 21.01 40.61 28.73 33.18C36.45 25.75 36.68 13.42 29.25 5.69997C26.32 2.65997 22.57 0.689972 18.41 -2.76272e-05Z" fill="#B9CADE"/>
</g>
<defs>
<clipPath id="clip0_313_162">
<rect width="34.68" height="38.6" fill="white"/>
</clipPath>
</defs>
</svg>
