<svg width="20" height="20" viewBox="0 0 20 20" fill="none" xmlns="http://www.w3.org/2000/svg">
<path d="M10 19C5.02944 19 1 14.9706 1 10C1 5.02944 5.02944 1 10 1C14.9706 1 19 5.02944 19 10C19 14.9706 14.9706 19 10 19Z" stroke="#797173" stroke-width="2"/>
<path fill-rule="evenodd" clip-rule="evenodd" d="M10 14C7.79088 14 6.00002 12.2091 6.00002 10C6.00002 7.79086 7.79088 6 10 6C12.2092 6 14 7.79086 14 10C14 12.2091 12.2092 14 10 14ZM2.92896 17.0711L4.34317 15.6569C5.79088 17.1046 7.79088 18 10 18C14.4183 18 18 14.4183 18 10C18 5.58172 14.4183 2 10 2V0C15.5229 0 20 4.47715 20 10C20 15.5228 15.5229 20 10 20C7.2386 20 4.7386 18.8807 2.92896 17.0711Z" fill="white"/>
</svg>
