<svg width="36" height="53" viewBox="0 0 36 53" fill="none" xmlns="http://www.w3.org/2000/svg">
<path opacity="0.08" d="M4.90453 15.495C5.55787 13.0217 6.46786 10.8633 7.63453 9.02C8.82453 7.17667 10.2129 5.63667 11.7995 4.4C13.3862 3.16333 15.1362 2.24166 17.0495 1.635C18.9629 1.005 20.9812 0.689997 23.1045 0.689997C25.1812 0.689997 27.0129 0.993331 28.5995 1.6C30.2095 2.20667 31.5512 3.035 32.6245 4.085C33.7212 5.135 34.5495 6.37166 35.1095 7.795C35.6695 9.195 35.9495 10.7 35.9495 12.31C35.9495 14.1767 35.7512 15.8217 35.3545 17.245C34.9812 18.645 34.4212 19.87 33.6745 20.92C32.9279 21.9467 32.0062 22.81 30.9095 23.51C29.8129 24.21 28.5412 24.7817 27.0945 25.225C31.7145 26.975 34.0245 30.2767 34.0245 35.13C34.0245 37.02 33.7912 38.7583 33.3245 40.345C32.8579 41.9317 32.2045 43.3783 31.3645 44.685C30.5245 45.9683 29.5212 47.1 28.3545 48.08C27.2112 49.06 25.9629 49.8883 24.6095 50.565C23.2562 51.2183 21.8212 51.7083 20.3045 52.035C18.7879 52.385 17.2479 52.56 15.6845 52.56C13.4212 52.56 11.4495 52.28 9.76953 51.72C8.08953 51.1367 6.64287 50.285 5.42953 49.165C4.23953 48.045 3.25953 46.645 2.48953 44.965C1.74286 43.285 1.14786 41.3367 0.704531 39.12L5.04453 37.405C6.18786 36.9617 7.20286 36.845 8.08953 37.055C8.99953 37.265 9.6062 37.755 9.90953 38.525C10.2595 39.3883 10.6329 40.205 11.0295 40.975C11.4262 41.745 11.8812 42.4217 12.3945 43.005C12.9079 43.565 13.5029 44.02 14.1795 44.37C14.8562 44.6967 15.6379 44.86 16.5245 44.86C17.8079 44.86 18.9629 44.6033 19.9895 44.09C21.0162 43.5533 21.8795 42.8417 22.5795 41.955C23.2795 41.045 23.8162 40.0067 24.1895 38.84C24.5629 37.6733 24.7495 36.4483 24.7495 35.165C24.7495 34.3017 24.6212 33.52 24.3645 32.82C24.1079 32.0967 23.6295 31.4783 22.9295 30.965C22.2529 30.4283 21.3079 30.02 20.0945 29.74C18.9045 29.4367 17.3529 29.285 15.4395 29.285L16.2795 22.74C18.2629 22.74 19.9195 22.5533 21.2495 22.18C22.6029 21.7833 23.6762 21.2233 24.4695 20.5C25.2862 19.7533 25.8579 18.8433 26.1845 17.77C26.5345 16.6967 26.7095 15.4717 26.7095 14.095C26.7095 12.275 26.2662 10.875 25.3795 9.895C24.5162 8.89166 23.2445 8.39 21.5645 8.39C20.7479 8.39 19.9779 8.53 19.2545 8.81C18.5545 9.09 17.9012 9.475 17.2945 9.965C16.6879 10.455 16.1512 11.0383 15.6845 11.715C15.2412 12.3683 14.8795 13.08 14.5995 13.85C14.0395 14.97 13.3862 15.7167 12.6395 16.09C11.9162 16.4633 10.9362 16.545 9.69953 16.335L4.90453 15.495Z" fill="#262D33"/>
</svg>
