<svg width="15" height="12" viewBox="0 0 15 12" fill="none" xmlns="http://www.w3.org/2000/svg">
<path d="M0.623 3.104C0.623 2.79133 0.681333 2.49733 0.798 2.222C0.914667 1.94667 1.07567 1.70867 1.281 1.508C1.48633 1.30267 1.72667 1.14167 2.002 1.025C2.27733 0.908333 2.576 0.85 2.898 0.85C3.22 0.85 3.51867 0.908333 3.794 1.025C4.074 1.14167 4.31667 1.30267 4.522 1.508C4.72733 1.70867 4.88833 1.94667 5.005 2.222C5.12633 2.49733 5.187 2.79133 5.187 3.104C5.187 3.412 5.12633 3.70367 5.005 3.979C4.88833 4.24967 4.72733 4.48767 4.522 4.693C4.31667 4.89367 4.074 5.05467 3.794 5.176C3.51867 5.29267 3.22 5.351 2.898 5.351C2.576 5.351 2.27733 5.29267 2.002 5.176C1.72667 5.05467 1.48633 4.89367 1.281 4.693C1.07567 4.48767 0.914667 4.24967 0.798 3.979C0.681333 3.70367 0.623 3.412 0.623 3.104ZM1.505 3.111C1.505 3.307 1.54 3.49133 1.61 3.664C1.68 3.832 1.778 3.979 1.904 4.105C2.03 4.231 2.177 4.33133 2.345 4.406C2.51767 4.476 2.702 4.511 2.898 4.511C3.094 4.511 3.276 4.476 3.444 4.406C3.61667 4.33133 3.766 4.231 3.892 4.105C4.018 3.979 4.116 3.832 4.186 3.664C4.256 3.49133 4.291 3.307 4.291 3.111C4.291 2.915 4.256 2.73067 4.186 2.558C4.116 2.38533 4.018 2.236 3.892 2.11C3.766 1.97933 3.61667 1.879 3.444 1.809C3.276 1.73433 3.094 1.697 2.898 1.697C2.702 1.697 2.51767 1.73433 2.345 1.809C2.177 1.879 2.03 1.97933 1.904 2.11C1.778 2.236 1.68 2.38533 1.61 2.558C1.54 2.73067 1.505 2.915 1.505 3.111ZM14.1199 8.928C14.1945 8.928 14.2599 8.95833 14.3159 9.019L14.8549 9.6C14.4442 10.076 13.9449 10.447 13.3569 10.713C12.7735 10.979 12.0665 11.112 11.2359 11.112C10.5172 11.112 9.86388 10.9883 9.27588 10.741C8.68788 10.489 8.18621 10.139 7.77088 9.691C7.35554 9.23833 7.03354 8.697 6.80488 8.067C6.57621 7.437 6.46188 6.744 6.46188 5.988C6.46188 5.232 6.58088 4.539 6.81888 3.909C7.05688 3.279 7.39054 2.73767 7.81988 2.285C8.25388 1.83233 8.77188 1.48233 9.37388 1.235C9.97588 0.982999 10.6409 0.856999 11.3689 0.856999C12.0829 0.856999 12.7129 0.971333 13.2589 1.2C13.8049 1.42867 14.2855 1.739 14.7009 2.131L14.2529 2.754C14.2249 2.80067 14.1875 2.84033 14.1409 2.873C14.0989 2.901 14.0405 2.915 13.9659 2.915C13.8819 2.915 13.7792 2.87067 13.6579 2.782C13.5365 2.68867 13.3779 2.586 13.1819 2.474C12.9859 2.362 12.7409 2.26167 12.4469 2.173C12.1529 2.07967 11.7912 2.033 11.3619 2.033C10.8439 2.033 10.3702 2.124 9.94088 2.306C9.51154 2.48333 9.14054 2.74233 8.82788 3.083C8.51988 3.42367 8.27954 3.839 8.10688 4.329C7.93421 4.819 7.84788 5.372 7.84788 5.988C7.84788 6.61333 7.93654 7.171 8.11388 7.661C8.29588 8.151 8.54088 8.56633 8.84888 8.907C9.16154 9.243 9.52788 9.49967 9.94788 9.677C10.3725 9.85433 10.8299 9.943 11.3199 9.943C11.6185 9.943 11.8869 9.92667 12.1249 9.894C12.3675 9.85667 12.5892 9.80067 12.7899 9.726C12.9952 9.65133 13.1842 9.558 13.3569 9.446C13.5342 9.32933 13.7092 9.19167 13.8819 9.033C13.9612 8.963 14.0405 8.928 14.1199 8.928Z" fill="#4B5157"/>
</svg>
